<?xml version="1.0" encoding="UTF-8"?>
<svg id="Layer_1" data-name="Layer 1" xmlns="http://www.w3.org/2000/svg" width="800" height="800" viewBox="0 0 800 800">
  <defs>
    <style>
      .cls-1, .cls-2 {
        fill: none;
      }

      .cls-3 {
        fill: #afed45;
      }

      .cls-4 {
        fill: #d6a60d;
      }

      .cls-5 {
        fill: #3bc81e;
      }

      .cls-2 {
        stroke: #727c92;
        stroke-miterlimit: 10;
        stroke-width: 2px;
      }

      .cls-6 {
        fill: #223654;
      }

      .cls-7 {
        fill: #fff;
      }

      .cls-8 {
        fill: #2b4874;
      }
    </style>
  </defs>
  <rect class="cls-2" x="238.06" y="111.18" width="323.88" height="578.29" rx="15.08" ry="15.08"/>
  <rect class="cls-6" x="5.07" y="14.68" width="174.13" height="57.44" rx="8.94" ry="8.94"/>
  <g>
    <rect class="cls-1" x="13.11" y="21.01" width="158.07" height="44.77"/>
    <path class="cls-7" d="M35.61,36.12h3.55v15.72h-3.55v-15.72Z"/>
    <path class="cls-7" d="M42.58,39.88h2.89l.26,1.52h.09c1.01-.97,2.21-1.81,3.85-1.81,2.6,0,3.71,1.84,3.71,4.83v7.43h-3.55v-6.98c0-1.72-.46-2.26-1.49-2.26-.89,0-1.44.41-2.22,1.16v8.07h-3.55v-11.97Z"/>
    <path class="cls-7" d="M56.38,39.88h2.89l.26,1.18h.09c.94-.84,2.16-1.47,3.41-1.47,2.9,0,4.67,2.4,4.67,6.09,0,4.11-2.44,6.46-5.03,6.46-1.03,0-2-.45-2.85-1.25l.12,1.89v3.51h-3.55v-16.41ZM64.06,45.71c0-2.15-.66-3.22-2.08-3.22-.73,0-1.36.33-2.06,1.07v4.91c.64.56,1.31.76,1.91.76,1.24,0,2.23-1.04,2.23-3.52Z"/>
    <path class="cls-7" d="M70.1,47.31v-7.43h3.55v6.98c0,1.72.46,2.26,1.49,2.26.89,0,1.44-.37,2.13-1.32v-7.92h3.55v11.97h-2.89l-.26-1.66h-.09c-1,1.19-2.13,1.95-3.76,1.95-2.6,0-3.71-1.84-3.71-4.83Z"/>
    <path class="cls-7" d="M84.39,47.5v-4.83h-1.63v-2.65l1.83-.14.41-3.18h2.93v3.18h2.87v2.78h-2.87v4.79c0,1.36.62,1.9,1.55,1.9.39,0,.82-.11,1.14-.23l.56,2.58c-.64.2-1.5.43-2.66.43-2.96,0-4.13-1.87-4.13-4.64Z"/>
    <path class="cls-7" d="M97.98,48.13v-13.18h3.55v13.33c0,.76.35,1,.64,1,.14,0,.23,0,.43-.05l.42,2.61c-.39.17-.97.3-1.78.3-2.43,0-3.27-1.59-3.27-4.01Z"/>
    <path class="cls-7" d="M104.33,48.53c0-2.52,2.01-3.89,6.74-4.39-.07-1.05-.59-1.73-1.89-1.73-1,0-2.01.42-3.17,1.08l-1.26-2.33c1.52-.93,3.23-1.58,5.11-1.58,3.06,0,4.75,1.75,4.75,5.42v6.84h-2.89l-.26-1.23h-.09c-1.01.89-2.14,1.52-3.48,1.52-2.18,0-3.57-1.59-3.57-3.61ZM111.07,48.37v-2.09c-2.52.34-3.34,1.06-3.34,1.97,0,.77.53,1.15,1.37,1.15s1.34-.4,1.97-1.02Z"/>
    <path class="cls-7" d="M117.24,56.29l.63-2.7c.22.06.55.15.81.15,1.17,0,1.78-.64,2.09-1.57l.18-.62-4.62-11.66h3.56l1.71,5.15c.35,1.08.63,2.22.94,3.39h.1c.27-1.13.53-2.27.83-3.39l1.45-5.15h3.4l-4.15,12.1c-1.14,3-2.41,4.55-5.23,4.55-.74,0-1.22-.1-1.71-.24Z"/>
    <path class="cls-7" d="M129.28,45.87c0-3.88,2.77-6.28,5.65-6.28,3.41,0,5.1,2.48,5.1,5.74,0,.64-.08,1.28-.15,1.57h-7.16c.32,1.74,1.51,2.53,3.1,2.53.9,0,1.72-.27,2.59-.78l1.17,2.14c-1.23.85-2.83,1.35-4.25,1.35-3.41,0-6.05-2.31-6.05-6.27ZM137,44.56c0-1.32-.57-2.26-1.99-2.26-1.12,0-2.09.75-2.33,2.26h4.32Z"/>
    <path class="cls-7" d="M142.48,39.88h2.89l.26,2.09h.09c.87-1.6,2.18-2.38,3.4-2.38.68,0,1.08.09,1.43.24l-.59,3.06c-.43-.1-.78-.19-1.29-.19-.9,0-2,.58-2.64,2.21v6.94h-3.55v-11.97Z"/>
  </g>
  <rect class="cls-6" x="312.93" y="14.68" width="174.13" height="57.44" rx="8.94" ry="8.94"/>
  <g>
    <rect class="cls-1" x="320.97" y="21.01" width="158.07" height="44.77"/>
    <path class="cls-7" d="M333.95,36.12h3.55v6.06h5.43v-6.06h3.55v15.72h-3.55v-6.56h-5.43v6.56h-3.55v-15.72Z"/>
    <path class="cls-7" d="M349.65,36.27c0-1.09.86-1.85,2.05-1.85s2.05.77,2.05,1.85-.86,1.85-2.05,1.85-2.05-.77-2.05-1.85ZM349.92,39.88h3.55v11.97h-3.55v-11.97Z"/>
    <path class="cls-7" d="M355.97,45.87c0-3.91,2.44-6.28,4.96-6.28,1.32,0,2.13.49,2.93,1.25l-.13-1.81v-4.08h3.55v16.9h-2.89l-.26-1.19h-.09c-.85.85-2.03,1.48-3.18,1.48-2.97,0-4.9-2.36-4.9-6.27ZM363.74,48.16v-4.91c-.63-.56-1.33-.76-1.98-.76-1.15,0-2.16,1.06-2.16,3.34s.81,3.41,2.18,3.41c.75,0,1.36-.29,1.95-1.07Z"/>
    <path class="cls-7" d="M369.79,45.87c0-3.91,2.44-6.28,4.96-6.28,1.32,0,2.13.49,2.93,1.25l-.13-1.81v-4.08h3.55v16.9h-2.89l-.26-1.19h-.09c-.85.85-2.03,1.48-3.18,1.48-2.97,0-4.9-2.36-4.9-6.27ZM377.56,48.16v-4.91c-.63-.56-1.33-.76-1.98-.76-1.15,0-2.16,1.06-2.16,3.34s.81,3.41,2.18,3.41c.75,0,1.36-.29,1.95-1.07Z"/>
    <path class="cls-7" d="M383.54,45.87c0-3.88,2.77-6.28,5.65-6.28,3.41,0,5.1,2.48,5.1,5.74,0,.64-.08,1.28-.15,1.57h-7.16c.32,1.74,1.51,2.53,3.1,2.53.9,0,1.72-.27,2.59-.78l1.17,2.14c-1.23.85-2.83,1.35-4.25,1.35-3.41,0-6.05-2.31-6.05-6.27ZM391.25,44.56c0-1.32-.57-2.26-1.99-2.26-1.12,0-2.09.75-2.33,2.26h4.32Z"/>
    <path class="cls-7" d="M396.73,39.88h2.89l.26,1.52h.09c1.01-.97,2.21-1.81,3.85-1.81,2.6,0,3.71,1.84,3.71,4.83v7.43h-3.55v-6.98c0-1.72-.46-2.26-1.49-2.26-.89,0-1.44.41-2.22,1.16v8.07h-3.55v-11.97Z"/>
    <path class="cls-7" d="M415.36,48.13v-13.18h3.55v13.33c0,.76.35,1,.64,1,.14,0,.23,0,.43-.05l.42,2.61c-.39.17-.97.3-1.78.3-2.43,0-3.26-1.59-3.26-4.01Z"/>
    <path class="cls-7" d="M421.71,48.53c0-2.52,2.01-3.89,6.74-4.39-.07-1.05-.59-1.73-1.89-1.73-1,0-2.01.42-3.17,1.08l-1.26-2.33c1.52-.93,3.23-1.58,5.11-1.58,3.06,0,4.75,1.75,4.75,5.42v6.84h-2.89l-.26-1.23h-.09c-1.01.89-2.14,1.52-3.48,1.52-2.18,0-3.57-1.59-3.57-3.61ZM428.45,48.37v-2.09c-2.52.34-3.34,1.06-3.34,1.97,0,.77.53,1.15,1.37,1.15s1.34-.4,1.97-1.02Z"/>
    <path class="cls-7" d="M434.62,56.29l.63-2.7c.22.06.55.15.81.15,1.17,0,1.78-.64,2.09-1.57l.18-.62-4.62-11.66h3.56l1.71,5.15c.35,1.08.63,2.22.95,3.39h.1c.27-1.13.53-2.27.83-3.39l1.45-5.15h3.4l-4.15,12.1c-1.14,3-2.41,4.55-5.23,4.55-.74,0-1.22-.1-1.71-.24Z"/>
    <path class="cls-7" d="M446.67,45.87c0-3.88,2.77-6.28,5.65-6.28,3.41,0,5.1,2.48,5.1,5.74,0,.64-.08,1.28-.15,1.57h-7.16c.32,1.74,1.51,2.53,3.1,2.53.91,0,1.72-.27,2.59-.78l1.17,2.14c-1.23.85-2.83,1.35-4.25,1.35-3.41,0-6.05-2.31-6.05-6.27ZM454.38,44.56c0-1.32-.57-2.26-1.99-2.26-1.12,0-2.09.75-2.33,2.26h4.32Z"/>
    <path class="cls-7" d="M459.86,39.88h2.89l.25,2.09h.09c.87-1.6,2.18-2.38,3.4-2.38.68,0,1.08.09,1.43.24l-.59,3.06c-.43-.1-.78-.19-1.29-.19-.9,0-2,.58-2.64,2.21v6.94h-3.55v-11.97Z"/>
  </g>
  <rect class="cls-6" x="249.35" y="725.45" width="301.31" height="57.44" rx="8.94" ry="8.94"/>
  <g>
    <rect class="cls-1" x="257.38" y="731.79" width="285.24" height="44.77"/>
    <path class="cls-7" d="M269.42,746.9h4.25l4.94,15.72h-3.76l-2.06-7.96c-.44-1.57-.86-3.43-1.28-5.07h-.1c-.38,1.66-.8,3.5-1.24,5.07l-2.07,7.96h-3.63l4.94-15.72ZM267.74,756.12h7.56v2.76h-7.56v-2.76Z"/>
    <path class="cls-7" d="M280.03,750.66h2.89l.26,2.09h.09c.87-1.6,2.18-2.38,3.4-2.38.68,0,1.08.09,1.43.24l-.59,3.06c-.43-.11-.78-.19-1.29-.19-.9,0-2,.58-2.64,2.21v6.94h-3.55v-11.97Z"/>
    <path class="cls-7" d="M290.11,758.27v-4.83h-1.63v-2.65l1.83-.14.41-3.18h2.93v3.18h2.87v2.78h-2.87v4.79c0,1.36.62,1.9,1.55,1.9.39,0,.82-.11,1.14-.23l.56,2.58c-.64.2-1.5.43-2.66.43-2.96,0-4.13-1.87-4.13-4.64Z"/>
    <path class="cls-7" d="M298.6,747.05c0-1.09.86-1.85,2.05-1.85s2.05.77,2.05,1.85-.86,1.85-2.05,1.85-2.05-.78-2.05-1.85ZM298.87,750.66h3.55v11.97h-3.55v-11.97Z"/>
    <path class="cls-7" d="M304.56,750.79l1.79-.14h5.5v2.78h-7.29v-2.65ZM306.15,750.04c0-2.53,1.17-4.6,4.4-4.6,1,0,1.86.22,2.39.43l-.64,2.62c-.4-.16-.85-.26-1.24-.26-.87,0-1.36.48-1.36,1.72v12.69h-3.55v-12.59Z"/>
    <path class="cls-7" d="M313.49,747.05c0-1.09.86-1.85,2.05-1.85s2.05.77,2.05,1.85-.86,1.85-2.05,1.85-2.05-.78-2.05-1.85ZM313.76,750.66h3.55v11.97h-3.55v-11.97Z"/>
    <path class="cls-7" d="M319.73,756.64c0-3.98,2.93-6.28,6.24-6.28,1.47,0,2.6.52,3.5,1.29l-1.68,2.28c-.57-.49-1.05-.71-1.62-.71-1.71,0-2.8,1.34-2.8,3.42s1.14,3.41,2.68,3.41c.79,0,1.54-.39,2.16-.88l1.39,2.32c-1.16,1.03-2.65,1.42-3.95,1.42-3.34,0-5.92-2.3-5.92-6.27Z"/>
    <path class="cls-7" d="M331.42,747.05c0-1.09.86-1.85,2.05-1.85s2.05.77,2.05,1.85-.86,1.85-2.05,1.85-2.05-.78-2.05-1.85ZM331.69,750.66h3.55v11.97h-3.55v-11.97Z"/>
    <path class="cls-7" d="M337.8,759.3c0-2.52,2.01-3.89,6.74-4.39-.07-1.05-.59-1.73-1.89-1.73-1,0-2.01.42-3.17,1.08l-1.26-2.33c1.52-.93,3.23-1.58,5.11-1.58,3.06,0,4.75,1.75,4.75,5.42v6.84h-2.89l-.26-1.23h-.09c-1.01.88-2.14,1.51-3.48,1.51-2.18,0-3.57-1.59-3.57-3.61ZM344.54,759.15v-2.09c-2.52.34-3.34,1.06-3.34,1.97,0,.77.53,1.15,1.37,1.15s1.34-.4,1.97-1.02Z"/>
    <path class="cls-7" d="M351.07,758.91v-13.18h3.55v13.33c0,.76.35,1,.64,1,.14,0,.23,0,.43-.05l.42,2.62c-.39.17-.97.29-1.78.29-2.43,0-3.27-1.59-3.27-4.01Z"/>
    <path class="cls-7" d="M362.79,750.66h2.89l.26,1.52h.09c1.01-.97,2.21-1.8,3.85-1.8,2.6,0,3.71,1.84,3.71,4.83v7.43h-3.55v-6.98c0-1.72-.46-2.26-1.49-2.26-.89,0-1.44.41-2.22,1.16v8.07h-3.55v-11.97Z"/>
    <path class="cls-7" d="M375.9,756.64c0-3.88,2.77-6.28,5.65-6.28,3.41,0,5.1,2.48,5.1,5.74,0,.64-.08,1.28-.15,1.57h-7.16c.32,1.74,1.51,2.53,3.1,2.53.9,0,1.72-.28,2.59-.78l1.17,2.14c-1.23.85-2.83,1.35-4.25,1.35-3.41,0-6.05-2.31-6.05-6.27ZM383.62,755.33c0-1.32-.57-2.26-1.99-2.26-1.12,0-2.09.75-2.33,2.26h4.32Z"/>
    <path class="cls-7" d="M388.98,758.09v-7.43h3.55v6.98c0,1.72.46,2.26,1.49,2.26.89,0,1.44-.37,2.13-1.32v-7.92h3.55v11.97h-2.89l-.26-1.66h-.09c-1,1.19-2.13,1.95-3.76,1.95-2.6,0-3.71-1.84-3.71-4.83Z"/>
    <path class="cls-7" d="M402.8,750.66h2.89l.25,2.09h.09c.87-1.6,2.18-2.38,3.4-2.38.68,0,1.08.09,1.43.24l-.59,3.06c-.43-.11-.78-.19-1.29-.19-.9,0-2,.58-2.64,2.21v6.94h-3.55v-11.97Z"/>
    <path class="cls-7" d="M411.18,759.3c0-2.52,2.01-3.89,6.74-4.39-.07-1.05-.59-1.73-1.89-1.73-1,0-2.01.42-3.17,1.08l-1.26-2.33c1.52-.93,3.23-1.58,5.11-1.58,3.06,0,4.75,1.75,4.75,5.42v6.84h-2.89l-.26-1.23h-.09c-1.01.88-2.14,1.51-3.48,1.51-2.18,0-3.57-1.59-3.57-3.61ZM417.92,759.15v-2.09c-2.52.34-3.34,1.06-3.34,1.97,0,.77.53,1.15,1.37,1.15s1.34-.4,1.97-1.02Z"/>
    <path class="cls-7" d="M424.45,758.91v-13.18h3.55v13.33c0,.76.35,1,.64,1,.14,0,.23,0,.43-.05l.42,2.62c-.39.17-.97.29-1.78.29-2.43,0-3.26-1.59-3.26-4.01Z"/>
    <path class="cls-7" d="M436.17,750.66h2.89l.25,1.52h.09c1.01-.97,2.21-1.8,3.85-1.8,2.6,0,3.71,1.84,3.71,4.83v7.43h-3.55v-6.98c0-1.72-.46-2.26-1.49-2.26-.89,0-1.44.41-2.22,1.16v8.07h-3.55v-11.97Z"/>
    <path class="cls-7" d="M449.28,756.64c0-3.88,2.77-6.28,5.65-6.28,3.41,0,5.1,2.48,5.1,5.74,0,.64-.08,1.28-.15,1.57h-7.16c.32,1.74,1.51,2.53,3.1,2.53.91,0,1.72-.28,2.59-.78l1.17,2.14c-1.23.85-2.83,1.35-4.25,1.35-3.41,0-6.05-2.31-6.05-6.27ZM457,755.33c0-1.32-.57-2.26-1.99-2.26-1.12,0-2.09.75-2.33,2.26h4.32Z"/>
    <path class="cls-7" d="M462.71,758.27v-4.83h-1.63v-2.65l1.83-.14.41-3.18h2.93v3.18h2.87v2.78h-2.87v4.79c0,1.36.62,1.9,1.55,1.9.39,0,.82-.11,1.14-.23l.56,2.58c-.64.2-1.5.43-2.66.43-2.96,0-4.13-1.87-4.13-4.64Z"/>
    <path class="cls-7" d="M470.5,750.66h3.52l1.15,5.54c.21,1.18.34,2.34.54,3.56h.1c.21-1.21.42-2.42.71-3.56l1.3-5.54h3.08l1.35,5.54c.29,1.18.5,2.34.75,3.56h.1c.21-1.21.34-2.38.55-3.56l1.14-5.54h3.28l-2.86,11.97h-4.15l-1.1-4.78c-.22-1.11-.42-2.21-.64-3.5h-.1c-.21,1.29-.38,2.4-.61,3.51l-1.05,4.78h-4.06l-3-11.97Z"/>
    <path class="cls-7" d="M489.31,756.64c0-3.98,2.8-6.28,5.83-6.28s5.83,2.3,5.83,6.28-2.8,6.27-5.83,6.27-5.83-2.3-5.83-6.27ZM497.34,756.64c0-2.07-.73-3.42-2.2-3.42s-2.2,1.34-2.2,3.42.73,3.41,2.2,3.41,2.2-1.34,2.2-3.41Z"/>
    <path class="cls-7" d="M503.4,750.66h2.89l.25,2.09h.09c.87-1.6,2.18-2.38,3.4-2.38.68,0,1.08.09,1.43.24l-.59,3.06c-.43-.11-.78-.19-1.29-.19-.9,0-2,.58-2.64,2.21v6.94h-3.55v-11.97Z"/>
    <path class="cls-7" d="M513.01,745.72h3.47v9.68h.09l3.8-4.75h3.85l-4.19,4.93,4.51,7.04h-3.84l-2.69-4.67-1.52,1.72v2.95h-3.47v-16.9Z"/>
    <path class="cls-7" d="M525.17,761.24l1.6-2.21c1.08.82,2.09,1.26,3.09,1.26,1.05,0,1.51-.4,1.51-1.03,0-.79-1.19-1.15-2.42-1.63-1.47-.57-3.17-1.54-3.17-3.52,0-2.23,1.81-3.75,4.57-3.75,1.83,0,3.2.74,4.22,1.52l-1.59,2.13c-.85-.62-1.69-1.02-2.52-1.02-.92,0-1.37.36-1.37.96,0,.76,1.12,1.05,2.36,1.51,1.51.56,3.22,1.41,3.22,3.6s-1.71,3.86-4.92,3.86c-1.58,0-3.38-.68-4.6-1.67Z"/>
  </g>
  <rect class="cls-6" x="620.79" y="14.68" width="174.13" height="57.44" rx="8.94" ry="8.94"/>
  <g>
    <rect class="cls-1" x="628.83" y="21.01" width="158.07" height="44.77"/>
    <path class="cls-7" d="M641.4,43.92c0-5.14,2.9-8.08,7.14-8.08s7.14,2.97,7.14,8.08-2.9,8.22-7.14,8.22-7.14-3.08-7.14-8.22ZM652.04,43.92c0-3.15-1.35-5.01-3.5-5.01s-3.5,1.86-3.5,5.01,1.35,5.15,3.5,5.15,3.5-2,3.5-5.15Z"/>
    <path class="cls-7" d="M658.24,47.31v-7.43h3.55v6.98c0,1.72.46,2.26,1.49,2.26.89,0,1.44-.37,2.13-1.32v-7.92h3.55v11.97h-2.89l-.26-1.66h-.09c-1,1.19-2.13,1.95-3.76,1.95-2.6,0-3.71-1.84-3.71-4.83Z"/>
    <path class="cls-7" d="M672.53,47.5v-4.83h-1.63v-2.65l1.83-.14.41-3.18h2.93v3.18h2.87v2.78h-2.87v4.79c0,1.36.62,1.9,1.55,1.9.39,0,.82-.11,1.14-.23l.56,2.58c-.64.2-1.5.43-2.66.43-2.96,0-4.13-1.87-4.13-4.64Z"/>
    <path class="cls-7" d="M681.3,39.88h2.89l.25,1.18h.09c.94-.84,2.16-1.47,3.41-1.47,2.9,0,4.67,2.4,4.67,6.09,0,4.11-2.44,6.46-5.03,6.46-1.03,0-2-.45-2.86-1.25l.12,1.89v3.51h-3.55v-16.41ZM688.98,45.71c0-2.15-.66-3.22-2.08-3.22-.73,0-1.36.33-2.06,1.07v4.91c.64.56,1.31.76,1.91.76,1.24,0,2.23-1.04,2.23-3.52Z"/>
    <path class="cls-7" d="M695.01,47.31v-7.43h3.55v6.98c0,1.72.46,2.26,1.49,2.26.89,0,1.44-.37,2.13-1.32v-7.92h3.55v11.97h-2.89l-.26-1.66h-.09c-1,1.19-2.13,1.95-3.76,1.95-2.6,0-3.71-1.84-3.71-4.83Z"/>
    <path class="cls-7" d="M709.31,47.5v-4.83h-1.63v-2.65l1.83-.14.41-3.18h2.93v3.18h2.87v2.78h-2.87v4.79c0,1.36.62,1.9,1.55,1.9.39,0,.82-.11,1.14-.23l.56,2.58c-.64.2-1.5.43-2.66.43-2.96,0-4.13-1.87-4.13-4.64Z"/>
    <path class="cls-7" d="M722.9,48.13v-13.18h3.55v13.33c0,.76.35,1,.64,1,.14,0,.23,0,.43-.05l.42,2.61c-.39.17-.97.3-1.78.3-2.43,0-3.26-1.59-3.26-4.01Z"/>
    <path class="cls-7" d="M729.25,48.53c0-2.52,2.01-3.89,6.74-4.39-.07-1.05-.59-1.73-1.89-1.73-1,0-2.01.42-3.17,1.08l-1.26-2.33c1.52-.93,3.23-1.58,5.11-1.58,3.06,0,4.75,1.75,4.75,5.42v6.84h-2.89l-.26-1.23h-.09c-1.01.89-2.14,1.52-3.48,1.52-2.18,0-3.57-1.59-3.57-3.61ZM735.99,48.37v-2.09c-2.52.34-3.34,1.06-3.34,1.97,0,.77.53,1.15,1.37,1.15s1.34-.4,1.97-1.02Z"/>
    <path class="cls-7" d="M742.15,56.29l.63-2.7c.22.06.55.15.81.15,1.17,0,1.78-.64,2.09-1.57l.18-.62-4.62-11.66h3.56l1.71,5.15c.35,1.08.63,2.22.95,3.39h.1c.27-1.13.53-2.27.83-3.39l1.45-5.15h3.4l-4.15,12.1c-1.14,3-2.41,4.55-5.23,4.55-.74,0-1.22-.1-1.71-.24Z"/>
    <path class="cls-7" d="M754.2,45.87c0-3.88,2.77-6.28,5.65-6.28,3.41,0,5.1,2.48,5.1,5.74,0,.64-.08,1.28-.15,1.57h-7.16c.32,1.74,1.51,2.53,3.1,2.53.91,0,1.72-.27,2.59-.78l1.17,2.14c-1.23.85-2.83,1.35-4.25,1.35-3.41,0-6.05-2.31-6.05-6.27ZM761.91,44.56c0-1.32-.57-2.26-1.99-2.26-1.12,0-2.09.75-2.33,2.26h4.32Z"/>
    <path class="cls-7" d="M767.39,39.88h2.89l.25,2.09h.09c.87-1.6,2.18-2.38,3.4-2.38.68,0,1.08.09,1.43.24l-.59,3.06c-.43-.1-.78-.19-1.29-.19-.9,0-2,.58-2.64,2.21v6.94h-3.55v-11.97Z"/>
  </g>
  <polygon class="cls-3" points="93.59 325.17 221.43 192.86 231.98 203.06 240.07 170.67 207.97 179.86 218.53 190.06 90.69 322.37 93.59 325.17"/>
  <polygon class="cls-3" points="92.14 325.79 211.15 325.79 211.15 340.47 240.07 323.77 211.15 307.08 211.15 321.76 92.14 321.76 92.14 325.79"/>
  <polygon class="cls-3" points="90.79 325.26 221.38 443.65 211.52 454.52 244.16 461.58 233.94 429.79 224.08 440.66 93.49 322.28 90.79 325.26"/>
  <polygon class="cls-3" points="93.48 478.38 223.9 362.27 233.66 373.24 244.16 341.54 211.46 348.3 221.22 359.27 90.8 475.38 93.48 478.38"/>
  <polygon class="cls-3" points="92.14 478.89 211.15 478.89 211.15 493.58 240.07 476.88 211.15 460.19 211.15 474.87 92.14 474.87 92.14 478.89"/>
  <polygon class="cls-3" points="90.69 478.28 218.53 610.59 207.97 620.79 240.07 629.99 231.98 597.59 221.43 607.79 93.59 475.48 90.69 478.28"/>
  <polygon class="cls-3" points="296.1 172.22 429.55 281.74 420.24 293.09 453.18 298.54 441.42 267.28 432.11 278.63 298.66 169.11 296.1 172.22"/>
  <polygon class="cls-3" points="295.49 171.35 444.93 583.97 431.13 588.97 456.67 610.48 462.52 577.6 448.72 582.6 299.27 169.98 295.49 171.35"/>
  <polygon class="cls-3" points="298.88 325.11 429.83 178.01 440.79 187.78 447.55 155.08 415.85 165.58 426.82 175.34 295.88 322.43 298.88 325.11"/>
  <polygon class="cls-3" points="295.98 325.22 425.94 450.96 415.73 461.51 448.12 469.62 438.95 437.51 428.74 448.07 298.78 322.33 295.98 325.22"/>
  <polygon class="cls-3" points="299.15 477.84 443.86 211.31 456.76 218.32 455.89 184.94 427.41 202.39 440.32 209.39 295.61 475.92 299.15 477.84"/>
  <polygon class="cls-3" points="295.91 478.25 414.39 605.51 403.65 615.52 435.57 625.31 428.09 592.76 417.34 602.77 298.85 475.51 295.91 478.25"/>
  <polygon class="cls-3" points="299.23 630.77 463.19 241.26 476.72 246.95 472.55 213.82 445.94 234 459.48 239.69 295.52 629.21 299.23 630.77"/>
  <polygon class="cls-3" points="298.83 631.39 427.02 499.05 437.56 509.27 445.69 476.88 413.58 486.04 424.12 496.25 295.93 628.59 298.83 631.39"/>
  <polygon class="cls-3" points="500.98 171.83 632.95 358.02 620.97 366.51 651.31 380.45 648.21 347.2 636.23 355.69 504.26 169.5 500.98 171.83"/>
  <polygon class="cls-3" points="501.61 325.52 610.97 388.85 603.61 401.55 637.01 401.6 620.35 372.66 612.99 385.36 503.63 322.03 501.61 325.52"/>
  <polygon class="cls-3" points="503.48 478.7 611.72 427.57 617.99 440.84 637.01 413.39 603.73 410.65 610 423.92 501.76 475.06 503.48 478.7"/>
  <polygon class="cls-3" points="504.22 631.21 635.45 457.99 647.16 466.86 651.31 433.73 620.54 446.7 632.24 455.56 501.01 628.77 504.22 631.21"/>
  <circle class="cls-8" cx="92.14" cy="323.77" r="43.15"/>
  <circle class="cls-8" cx="92.14" cy="476.88" r="43.15"/>
  <circle class="cls-5" cx="297.38" cy="170.67" r="43.15"/>
  <circle class="cls-5" cx="297.38" cy="323.77" r="43.15"/>
  <circle class="cls-5" cx="297.38" cy="476.88" r="43.15"/>
  <circle class="cls-5" cx="297.38" cy="629.99" r="43.15"/>
  <circle class="cls-4" cx="707.86" cy="400.33" r="43.15"/>
  <circle class="cls-5" cx="502.62" cy="170.67" r="43.15"/>
  <circle class="cls-5" cx="502.62" cy="323.77" r="43.15"/>
  <circle class="cls-5" cx="502.62" cy="476.88" r="43.15"/>
  <circle class="cls-5" cx="502.62" cy="629.99" r="43.15"/>
</svg>